<?xml version="1.0" encoding="utf-8"?>
<!-- Generator: Adobe Illustrator 25.1.0, SVG Export Plug-In . SVG Version: 6.00 Build 0)  -->
<svg version="1.1" id="Слой_1" xmlns="http://www.w3.org/2000/svg" xmlns:xlink="http://www.w3.org/1999/xlink" x="0px" y="0px"
	 viewBox="0 0 1242 1000" style="enable-background:new 0 0 1242 1000;" xml:space="preserve">
<style type="text/css">
	.st0{fill:#7E622F;}
	.st1{fill:#7E6330;}
	.st2{fill:#7F642F;}
	.st3{fill:#7D612D;}
	.st4{fill:#0D0D0D;}
	.st5{fill:#7F6432;}
	.st6{fill:#775F2F;}
	.st7{fill:#7B6131;}
	.st8{fill:#866E42;}
	.st9{fill:#635234;}
	.st10{fill:#6A5A3D;}
	.st11{fill:#635437;}
	.st12{fill:#62543A;}
	.st13{fill:#61543C;}
	.st14{fill:#6A5733;}
</style>
<g>
	<path class="st0" d="M579.09,420.73c0,36.35,0,71.31,0,106.85c9.8,0,19.39,0,29.36,0c0,4.13,0,7.68,0,11.88c-1.96,0-3.92,0-5.88,0
		c-34.13,0-68.25,0-102.38,0c-7.15,0-7.15,0-7.1-7.4c0.01-1.32,0-2.64,0-4.58c9.01,0,17.72,0,26.74,0c0-69.17,0-137.71,0-206.73
		c-8.77,0-17.36,0-26.32,0c0-4,0-7.53,0-11.36c1.65-0.09,3.1-0.25,4.55-0.25c43.45,0,86.9-0.18,130.35,0.13
		c16.67,0.12,32.98,2.78,48.48,9.71c36.43,16.29,33.79,62.81,5.87,80.97c-15,9.76-31.67,13.39-49.07,14.97
		c-1.98,0.18-3.93,0.58-5.9,0.88c-0.02,0.57-0.05,1.15-0.07,1.72c4.19,0.87,8.39,1.7,12.56,2.63c13.63,3.02,26.51,7.71,36.81,17.62
		c11.4,10.97,15.74,25.23,17.5,40.31c1.29,11.05,1.49,22.24,2.11,33.37c0.71,12.62,7.01,17.5,19.52,14.98
		c3.23-0.65,6.43-1.43,10.14-2.26c1.15,2.93,2.34,5.95,3.71,9.45c-25.35,11.59-50.53,16.22-76.06,1.66
		c-11.92-6.8-17.37-18.37-19.69-31.09c-2.23-12.24-2.9-24.76-4.26-37.15c-0.67-6.11-0.97-12.3-2.12-18.33
		c-2.73-14.27-11.3-23.19-25.74-25.62C594.75,421.82,587.13,421.51,579.09,420.73z M579.18,409.06c12.05,0,23.54,0.32,35.01-0.08
		c14.54-0.5,21.88-6.31,24.45-20.06c3.41-18.29,2.68-36.71-0.73-54.95c-1.16-6.19-5.13-10.6-11.67-11.31
		c-8.88-0.97-17.8-1.56-26.73-1.96c-6.73-0.3-13.49-0.06-20.32-0.06C579.18,350.45,579.18,379.53,579.18,409.06z"/>
	<path class="st1" d="M830.67,320.71c-0.09,1.76-0.19,2.75-0.19,3.73c0.04,53.65-0.07,107.31,0.27,160.96
		c0.07,11.14,2.7,22.03,9.78,31.2c6.7,8.68,15.97,12.78,26.58,13.99c15.32,1.74,30.12,0.3,43.54-8.22
		c14.29-9.06,21.42-22.44,22.03-38.99c0.8-21.78,0.95-43.59,1.08-65.39c0.17-26.66,0.07-53.32,0.01-79.98
		c-0.03-15.24-2.12-17.28-17.14-17.3c-0.5,0-1,0.01-1.5,0c-11.68-0.34-10.63,2.72-8.99-11.36c23.88,0,47.79,0,72.06,0
		c0,3.45,0,6.82,0,10.84c-4.76,0-9.38-0.16-13.99,0.03c-12.73,0.54-16.55,4.36-16.66,17.16c-0.16,18.66-0.05,37.32-0.05,55.99
		c-0.01,26.83,0.09,53.65-0.06,80.48c-0.23,39.37-18.71,61.78-57.48,68.67c-24.19,4.3-48.46,3.42-72.1-3.8
		c-22.4-6.84-38.95-20.25-44.27-44.24c-1.57-7.08-2.05-14.52-2.07-21.8c-0.13-49.49-0.03-98.97,0.12-148.46
		c0.01-3.49-1.36-4.22-4.43-4.16c-7.28,0.15-14.56,0.05-22.14,0.05c0-3.79,0-7.04,0-10.65c38.09,0,76.12,0,114.18,0
		c0.15,0.25,0.41,0.5,0.46,0.79c1.96,10.45,1.96,10.45-8.74,10.45C844.35,320.71,837.73,320.71,830.67,320.71z"/>
	<path class="st1" d="M1002.92,541.72c0-22.51,0-44.73,0-67.55c3.91,0,7.57-0.35,11.1,0.17c1.37,0.2,3.03,2.17,3.57,3.68
		c4.27,11.98,9.47,23.47,17.78,33.23c14.18,16.66,32.48,23.29,54.11,22.16c17.25-0.9,31.39-7.46,40.61-22.25
		c10.65-17.09,8.41-41.37-14.69-50.86c-14.5-5.95-30.22-8.89-45.28-13.54c-10.14-3.13-20.41-6.18-30.06-10.52
		c-21.63-9.73-34.04-26.57-35.93-50.57c-2.21-28.08,5.23-52.19,29.33-68.99c14.37-10.02,30.77-12.74,47.91-12.05
		c13.92,0.57,26.61,4.96,38.35,12.44c1.28,0.82,3.75,0.16,5.53-0.33c1.18-0.33,2.23-1.45,3.11-2.43c4.72-5.31,10.65-6.16,18.21-4.67
		c0,19.8,0,39.83,0,60.58c-2.46,0-5.64,0.41-8.63-0.18c-1.36-0.27-2.92-2.33-3.38-3.88c-4.66-15.68-12.09-29.48-25.21-39.83
		c-6.87-5.42-14.66-8.49-23.14-9.76c-13.25-1.98-26.28-1.36-38.3,5.41c-8.59,4.84-14.82,11.58-16.66,21.78
		c-1.62,8.96,1.34,16.03,8.19,21.59c10.21,8.29,22.51,11.88,35,14.72c17.48,3.98,34.76,8.37,50.95,16.42
		c22.26,11.06,34.34,28.84,37.07,53.5c2.08,18.78,0.53,36.91-8.48,53.76c-15.37,28.74-44.18,43.79-76.71,40.9
		c-15.51-1.38-30.11-5.06-43.22-13.84c-1.17-0.78-3.79-0.56-5.07,0.25c-2.78,1.76-5.45,3.93-7.6,6.42
		C1016.19,543.51,1009.7,542.43,1002.92,541.72z"/>
	<path class="st2" d="M117.18,320.38c0-4.1,0-7.38,0-11.01c35.98,0,71.68,0,107.9,0c0,3.4,0,6.91,0,11.03c-8.29,0-16.38,0-25.62,0
		c19.27,46.9,38.15,92.88,57.58,140.17c1.25-2.57,1.98-3.77,2.43-5.07c13.83-39.42,27.69-78.83,41.41-118.29
		c4.58-13.17,2.01-16.63-11.85-16.79c-5.63-0.06-11.26-0.01-17.3-0.01c0-3.92,0-7.29,0-11.03c24.13,0,48.19,0,73.03,0
		c1.11,3.94,2.3,8.18,3.6,12.79c-6.35,0.6-11.57,1.03-16.77,1.6c-5.31,0.58-8.66,4.18-11.06,8.38c-2.53,4.43-4.13,9.37-6.38,13.97
		c-2.28,4.66-5.35,9-7.21,13.81c-2.64,6.86-4.5,14.02-6.65,21.07c-0.33,1.07-0.03,2.53-0.67,3.27c-7.62,8.91-9.68,20.3-13.5,30.81
		c-15.07,41.39-29.75,82.92-44.56,124.41c-1.01,2.84-1.53,5.65-5.78,5.45c-4.11-0.19-7.28,0-9.32-5.03
		c-18.36-45.36-37.06-90.59-55.67-135.85c-10.57-25.7-21.35-51.32-31.6-77.15c-2.1-5.29-4.75-7.28-10.23-6.63
		C125.25,320.74,121.41,320.38,117.18,320.38z"/>
	<path class="st3" d="M472.38,309.45c1.69,11.47,1.69,11.47-9.07,11.47c-5.82,0-11.64,0-17.83,0c0,68.58,0,136.97,0,205.89
		c8.88,0,17.93,0,27.32,0c0,4.24,0,7.95,0,12.18c-2.15,0.11-4.08,0.3-6.01,0.3c-34.63,0.02-69.26,0.01-103.89,0.01
		c-5.69,0-8.87-5.01-6.12-10.01c0.5-0.91,2.49-1.36,3.8-1.38c7.81-0.13,15.63-0.06,23.86-0.06c0-68.98,0-137.66,0-206.85
		c-9.56,0-18.62,0-27.87,0c0-4.07,0-7.64,0-11.54C395.32,309.45,433.7,309.45,472.38,309.45z"/>
	<path class="st4" d="M973.65,608.55c1.38,0.42,2.76,0.84,3.8,1.16c2.68-11.01,5.1-21.67,7.94-32.21c0.93-3.47,2.33-7.18,4.62-9.83
		c1.9-2.2,5.61-4.42,8.14-4.05c2.87,0.42,5.65,3.43,7.84,5.87c1.15,1.29,1.38,3.79,1.31,5.72c-0.54,13.79-3.93,26.33-13.77,36.94
		c-2.78,2.99-2.46,8.86-3.57,13.41c0.42,0.25,0.83,0.5,1.25,0.75c2.07-1.45,3.97-3.25,6.22-4.3c8.27-3.84,16.57-7.64,25.04-10.98
		c3.11-1.23,4.83-2.32,5.2-6.02c0.68-6.75,3.37-9.06,7.72-7.64c3.74,1.22,4.87,3.48,4.03,7.68c-1.53,7.7-2.21,15.58-3.25,23.38
		c0.7,0.17,1.4,0.33,2.09,0.5c1.01-2.33,2.1-4.62,3-6.99c3.43-9.02,6.78-18.06,10.18-27.09c0.83-2.2,1.53-4.61,4.77-3.82
		c3.13,0.77,3.59,3,3.3,5.77c-0.76,7.44-1.74,14.88-2.05,22.34c-0.14,3.47,1.07,7,2.39,10.55c4.69-6.19,7.43-12.91,8.35-20.35
		c0.53-4.29,0.57-8.66,1.35-12.89c0.85-4.61,3.68-6.32,7.94-5.31c4.16,0.99,6.16,3.32,5.3,7.99c-1.05,5.69-1.61,11.48-2.29,17.24
		c-0.18,1.51-0.03,3.05-0.03,4.58c0.54,0.1,1.07,0.21,1.61,0.31c0.44-1.01,0.95-2,1.32-3.04c3-8.27,5.87-16.58,8.99-24.79
		c1.19-3.13,3.27-5.44,7.21-4.69c4.08,0.77,6.85,3.22,7.23,7.21c0.51,5.28,0.24,10.63,0.29,15.96c0.02,1.57,0,3.14-0.53,4.14
		c4.9-9.31,9.71-18.68,14.76-27.91c1.76-3.21,4.33-5.63,8.56-4.13c4.33,1.53,5.04,5.01,4.51,8.91c-1.03,7.58-2.49,15.12-3.29,22.72
		c-0.51,4.86-0.64,9.93,3.29,14.57c6.28-6.5,11.02-13.52,14.29-21.59c1.37-3.37,2.49-7.13,4.82-9.74c2.27-2.55,5.71-4.76,9.01-5.53
		c6.65-1.56,11.86,3.8,10.56,10.59c-1.57,8.18-5.46,14.67-15.77,16.3c0.89,4.6,1.19,9.26,2.75,13.46c1.88,5.04,5.36,5.33,8.38,0.9
		c2.02-2.97,3.34-6.46,4.77-9.79c1.57-3.66,2.66-7.55,4.5-11.05c0.78-1.48,2.97-2.21,4.52-3.28c0.26,0.37,0.53,0.74,0.79,1.11
		c-2.3,6.53-4.31,13.19-6.98,19.57c-3.44,8.21-8.09,11.62-14.33,10.93c-7.63-0.84-10.69-6.55-12.89-12.94
		c-0.59-1.71-0.97-3.5-1.66-6.06c-2.28,2.85-4.14,5.26-6.11,7.59c-4.81,5.7-11.49,5.51-14.27-1.37c-2.42-5.97-3.01-12.77-3.75-19.28
		c-0.42-3.64,0.49-7.43-0.31-11.59c-1.86,3.41-4.11,6.67-5.49,10.26c-3.1,8.06-6.03,16.21-8.48,24.49
		c-0.89,3.01-2.17,5.34-5.06,4.88c-2.16-0.34-5.39-2.28-5.78-4.03c-1.66-7.41-2.44-15.01-3.52-22.54c-0.1-0.72-0.01-1.47-0.01-2.2
		c-0.45-0.1-0.91-0.2-1.36-0.3c-1.55,5.45-3.23,10.88-4.62,16.37c-0.97,3.87-1.14,7.98-2.46,11.7c-0.71,1.99-2.94,4.52-4.76,4.76
		c-2.13,0.28-5.34-1.06-6.67-2.79c-2.5-3.25-3.99-7.28-6.06-11.29c-3.13,3.44-5.99,10.07-11.73,5.99
		c-3.73-2.65-5.38-8.23-8.11-12.75c-0.57,1.27-1.36,3.1-2.22,4.9c-1.35,2.85-2.33,6.03-4.26,8.41c-1.49,1.84-4.3,3.79-6.37,3.64
		c-2.04-0.15-4.97-2.54-5.62-4.56c-1.96-6.1-3.01-12.49-4.58-19.56c-11.81,4.34-24.02,8.57-32.75,18.87
		c-3.97,4.69-2.7,8.2,2.95,10.26c1.09,0.4,2.21,0.72,3.32,1.07c14.67,4.64,19.37,11.05,18.18,26.51
		c-0.44,5.72-1.96,11.52-3.98,16.91c-3.68,9.84-13.68,11.68-19.72,3.15c-4.71-6.65-8.4-14.42-10.78-22.23
		c-4.9-16.03-6.23-32.65-5.03-49.43c-0.07-1.67-0.14-3.33-0.22-5c0,0,0.01,0.01,0.01,0.01
		C976.28,612.15,974.97,610.35,973.65,608.55z M990.26,645.94c0.35,13.78,1.5,27.24,7.92,39.7c0.53,1.03,1.19,2.01,1.94,2.89
		c3.26,3.8,6.05,3.7,7.77-0.92c2.07-5.54,4.1-11.36,4.59-17.19C1013.8,654.79,1008.77,649.13,990.26,645.94z M1000.36,576.73
		c-0.49-0.11-0.97-0.23-1.46-0.34c-1.9,7.77-3.81,15.54-5.71,23.31c0.59,0.14,1.18,0.28,1.78,0.42
		C999.6,592.97,1001.03,585.09,1000.36,576.73z M1157.69,614.97c0.49,0.27,0.98,0.53,1.48,0.8c5.82-2.26,8.62-8.71,5.23-15.71
		C1162.16,605.03,1159.93,610,1157.69,614.97z"/>
	<path class="st5" d="M734.69,627.12c-1.92,5.63-3.31,9.98-4.89,14.25c-1.43,3.88-3.41,7.39-8.24,7.52
		c-4.91,0.14-7.94-3.03-9.3-7.05c-2.17-6.41-3.4-13.13-5.15-19.68c-0.51-1.89-1.45-3.66-2.2-5.49c-2.3,1.36-5.21,2.24-6.76,4.2
		c-2.21,2.79-3.16,6.55-5.13,9.59c-3.24,5-7.71,8.53-14.05,7.72c-6.34-0.81-9.65-5.4-11.65-11.02c-3.21-9.03-2.82-18.04,0.91-26.78
		c1.72-4.03,4.77-6.77,9.65-6.57c1.3,0.05,2.66-0.11,3.93-0.43c11.15-2.77,17.96,2.49,18.21,14.12c0.03,1.31,0.16,2.61,0.25,4.05
		c5.44,0.64,6.53-2.5,6.99-6.81c0.76-7.11,4.26-9.73,10.07-8.16c3.71,1.01,5.87,3.22,5.46,7.17c-0.73,6.92-1.97,13.8-2.41,20.73
		c-0.31,4.99,0.35,10.05,0.57,15.08c0.69,0.11,1.38,0.21,2.07,0.32c2.23-5.55,4.02-11.33,6.77-16.61
		c6.8-13.05,4.53-27.25,6.05-40.99c1.55-14.02,3.83-27.96,6.18-41.87c0.92-5.46,3.72-7.14,8.3-6.42c4.62,0.72,7.03,3.63,6.44,8.89
		c-1.24,11.03-2.91,22.02-4.28,33.04c-3.18,25.5-3.79,51.12-1.39,76.66c0.84,8.9,4.29,17.57,6.87,26.26
		c0.63,2.11,2.33,4.03,3.88,5.71c3.58,3.88,6.87,3.92,10.71,0.24c7.68-7.36,11.53-17.04,15.25-26.61
		c5.18-13.31,9.63-26.9,14.66-40.26c1.29-3.42,2.49-7.78,8.75-7.05c-2.03,5.23-3.9,9.9-5.68,14.61
		c-6.14,16.24-11.9,32.64-18.55,48.66c-2.16,5.2-6.08,9.95-10.08,14.02c-7.56,7.68-17.95,6.96-24.9-1.24
		c-8.28-9.77-10.95-21.84-13.22-33.97C737.27,644.86,736.19,636.69,734.69,627.12z M689.14,599.68c-0.53,0.09-1.06,0.17-1.59,0.26
		c-1.54,2.1-3.5,4.04-4.47,6.38c-0.51,1.24,0.2,3.77,1.25,4.68c1.53,1.32,3.87,1.71,7.4,3.11
		C690.68,608.23,689.91,603.95,689.14,599.68z M679.78,630.05c0.76,0.05,1.52,0.1,2.28,0.16c2.07-3.11,4.14-6.23,6.28-9.45
		c-3.7-1.12-6.46-1.95-10.73-3.24C678.44,622.31,679.11,626.18,679.78,630.05z"/>
	<path class="st1" d="M867.18,644.71c0,10-0.35,19.76,0.1,29.48c0.44,9.62,1.72,19.2,2.57,28.81c0.28,3.13,0.1,6.21-3.82,7.03
		c-3.84,0.8-5.76-1.8-6.47-4.79c-3.48-14.85-8.1-29.62-9.6-44.69c-1.65-16.63-0.67-33.56-0.14-50.34c0.18-5.69,2.2-11.4,3.88-16.94
		c2.73-8.98,7.62-10.52,15.51-4.97c2.27-3.37,4.45-6.81,6.83-10.11c7.56-10.48,19.89-7.89,25.05,2.99
		c4.48,9.46,4.31,19.53,2.17,29.26c-1.68,7.63-4.73,15.16-8.34,22.12c-5,9.63-13.55,13.8-24.52,12.45
		C869.28,644.87,868.15,644.8,867.18,644.71z M893.85,594.24c-0.57-3.75-0.78-7.61-1.8-11.23c-1.53-5.41-4.45-6.28-7.91-1.78
		c-4.08,5.32-8.34,11.14-10.16,17.42c-3.29,11.36-4.91,23.21-7.04,34.89c-0.49,2.7,0.92,4.27,3.92,4.52
		c5.88,0.5,9.34-3.04,12.06-7.32C889.98,619.67,893.2,607.41,893.85,594.24z"/>
	<path class="st6" d="M973.65,608.55c1.31,1.8,2.63,3.6,3.94,5.41c-6.57-0.98-11.85-3.68-14.05-10.51c-0.9-0.43-1.8-0.85-2.7-1.28
		c-0.4,1.28-0.8,2.56-1.21,3.84c0,0,0.02-0.03,0.02-0.03c-1.01,1.67-2.72,3.26-2.9,5.02c-0.94,9.27-1.49,18.58-2.17,27.88
		c-6.96,3.08-7.37,3.02-10.08-4.35c-1.31-3.55-1.93-7.35-2.86-11.04c-0.31-0.02-0.63-0.03-0.94-0.05c-0.32,0.96-0.65,1.91-0.97,2.87
		c0.14,0.27,0.08,0.5-0.17,0.67c-0.29,0.69-0.59,1.38-0.88,2.07c0,0,0.04-0.07,0.04-0.07c-0.33,0.84-0.67,1.67-1,2.51l0.08,0.28
		c0,0-0.23,0.18-0.23,0.18c-2.21,0.66-4.42,1.33-4.04-2.39c-0.16-0.24-0.12-0.43,0.14-0.57c0.3-0.74,0.6-1.47,0.9-2.21
		c-0.16-0.31-0.12-0.59,0.15-0.83c0.27-0.77,0.55-1.54,0.82-2.32c-0.17-0.25-0.13-0.46,0.1-0.64c1.96-4.15,3.91-8.29,5.87-12.44
		c0.04-0.52,0.07-1.04,0.11-1.56c3.24-8.6,4.85-11.11,13.11-9.06c0.73-0.63,1.49-1.24,2.19-1.91c4.08-3.9,8.66-3.34,11.61,1.53
		C970.33,602.49,971.95,605.54,973.65,608.55z"/>
	<path class="st7" d="M932.58,610.72c-2.76,2.74-5.53,5.49-8.29,8.23c-2.34,0.18-5.39-0.73-5.58,3.1c-0.16,3.3-0.8,6.89,0.23,9.84
		c0.83,2.39,3.83,4.03,5.87,6.01c0.72-0.09,1.45-0.19,2.17-0.28c0.55,0.12,1.1,0.24,1.65,0.35c-0.01,0.63-0.03,1.27-0.04,1.9
		c-3.48,1.9-6.36,1.36-9.19-1.57c-2.31-2.4-5.16-4.28-7.77-6.4c0,0-0.03-0.37-0.03-0.37c0.03-7.86,0.05-15.72,0.08-23.58
		c0.3-1.53,0.61-3.05,0.91-4.58c0,0,0.06-0.38,0.06-0.38c2.41-1.92,5-3.65,7.19-5.8c3.11-3.05,6.49-2.85,10.01-1.35
		c1.74,0.75,3.26,2.03,4.88,3.07c0,0-0.04-0.04-0.04-0.04c-0.36,3.34-0.72,6.68-1.08,10.02c0,0-0.01,0.05-0.01,0.05
		C933.25,609.53,932.91,610.13,932.58,610.72z M926.22,600.61c-2.08,4.79-4.16,9.57-6.24,14.36
		C926.39,612.82,928.85,607.29,926.22,600.61z"/>
	<path class="st8" d="M712.53,585.75c-0.07-3.88,1.18-7.04,5.51-7.4c4.44-0.37,8.94,4.56,8.77,9.09c-0.13,3.44-3.38,6.43-6.98,6.43
		C715.66,593.87,712.54,590.39,712.53,585.75z"/>
	<path class="st9" d="M911.63,631.9c2.61,2.11,5.46,4,7.77,6.4c2.83,2.93,5.71,3.48,9.19,1.57c1.33-1.15,2.8-2.19,3.89-3.53
		c0.23-0.28-0.94-1.69-1.46-2.57c0.84-1.41,1.68-2.83,2.51-4.24c-0.39,3.73,1.83,3.05,4.04,2.39c-2.52,6.06-6.16,10.67-13.53,10.41
		C918.43,642.13,913.99,638.38,911.63,631.9z"/>
	<path class="st10" d="M954.59,638.88c0.68-9.3,1.23-18.61,2.17-27.88c0.18-1.75,1.89-3.35,2.9-5.02
		c-1.24,9.25-2.47,18.5-3.75,27.74c-0.24,1.75-0.65,3.48-0.99,5.22C954.93,638.94,954.59,638.88,954.59,638.88z"/>
	<path class="st11" d="M934.73,598.91c-1.62-1.04-3.13-2.32-4.88-3.07c-3.52-1.5-6.91-1.7-10.01,1.35c-2.19,2.15-4.78,3.88-7.19,5.8
		c1.97-5.42,5.7-8.92,11.4-9.95C928.91,592.16,932.63,594.35,934.73,598.91z"/>
	<path class="st12" d="M954.59,638.88c0,0,0.34,0.06,0.34,0.06c-1.36,1.38-2.86,4-4.07,3.88c-2.1-0.22-5.03-1.68-5.81-3.43
		c-1.72-3.88-2.27-8.26-3.45-12.4c-0.11-0.38-1.23-0.47-1.88-0.69c0.32-0.95,0.65-1.91,0.97-2.86c0.31,0.02,0.63,0.03,0.94,0.05
		c0.93,3.69,1.56,7.49,2.86,11.04C947.23,641.9,947.64,641.96,954.59,638.88z"/>
	<path class="st13" d="M954.75,599.92c-8.27-2.05-9.87,0.45-13.11,9.05c0.1-1.64-0.02-3.32,0.32-4.91
		C943.62,596.26,948.55,594.69,954.75,599.92z"/>
	<path class="st14" d="M924.8,637.9c-2.04-1.97-5.03-3.61-5.87-6.01c-1.03-2.95-0.38-6.54-0.23-9.84c0.18-3.84,3.24-2.93,5.58-3.1
		c-4.55,0.95-5.45,4.04-4.14,7.87C921.44,630.61,923.23,634.22,924.8,637.9z"/>
	<path class="st9" d="M911.67,607.95c-0.03,7.86-0.05,15.72-0.08,23.58c-3.89-7.72-3.29-15.61-0.89-23.57
		C911.03,607.96,911.35,607.95,911.67,607.95z"/>
	<path class="st13" d="M941.52,610.53c-1.96,4.15-3.91,8.29-5.87,12.44C937.61,618.83,939.56,614.68,941.52,610.53z"/>
	<path class="st14" d="M931.02,633.77c0.52,0.89,1.69,2.3,1.46,2.57c-1.09,1.34-2.56,2.38-3.89,3.53c0.01-0.63,0.03-1.27,0.04-1.9
		c-0.04-0.4-0.08-0.8-0.12-1.21c0,0-0.06,0.09-0.06,0.09c0.37-0.36,0.74-0.73,1.12-1.09c0,0-0.11,0.12-0.1,0.12
		c0.36-0.45,0.71-0.91,1.07-1.36C930.69,634.27,930.86,634.02,931.02,633.77z"/>
	<path class="st11" d="M933.6,608.89c0.36-3.34,0.72-6.68,1.08-10.02C934.32,602.21,933.96,605.55,933.6,608.89z"/>
	<path class="st10" d="M959.64,606.01c0.4-1.28,0.8-2.56,1.21-3.84c0.9,0.43,1.8,0.85,2.7,1.28
		C962.25,604.3,960.95,605.16,959.64,606.01z"/>
	<path class="st11" d="M911.67,607.95c-0.32,0-0.65,0.01-0.97,0.02c0.63-1.53,1.25-3.06,1.88-4.59
		C912.28,604.9,911.98,606.42,911.67,607.95z"/>
	<path class="st6" d="M977.58,613.95c0.07,1.67,0.14,3.33,0.22,5C977.73,617.28,977.66,615.61,977.58,613.95z"/>
	<path class="st13" d="M935.55,623.61c-0.27,0.77-0.55,1.54-0.82,2.32C935,625.16,935.27,624.38,935.55,623.61z"/>
	<path class="st11" d="M932.58,610.72c0.34-0.6,0.68-1.19,1.01-1.79C933.25,609.53,932.91,610.13,932.58,610.72z"/>
	<path class="st9" d="M938.68,629.03c0.29-0.69,0.59-1.38,0.88-2.07C939.26,627.65,938.97,628.34,938.68,629.03z"/>
	<path class="st9" d="M937.72,631.47c0.33-0.84,0.66-1.67,1-2.51C938.39,629.8,938.06,630.63,937.72,631.47z"/>
	<path class="st9" d="M934.58,626.76c-0.3,0.74-0.6,1.47-0.9,2.21C933.98,628.23,934.28,627.49,934.58,626.76z"/>
	<path class="st9" d="M930.53,634.53c-0.36,0.45-0.71,0.91-1.07,1.36C929.81,635.43,930.17,634.98,930.53,634.53z"/>
	<path class="st9" d="M929.56,635.76c-0.37,0.36-0.74,0.73-1.12,1.09C928.81,636.49,929.19,636.13,929.56,635.76z"/>
	<path class="st9" d="M928.51,636.77c0.04,0.4,0.08,0.8,0.12,1.21c-0.55-0.12-1.1-0.23-1.65-0.35
		C927.49,637.33,928,637.05,928.51,636.77z"/>
</g>
</svg>
